<svg xmlns="http://www.w3.org/2000/svg" xmlns:xlink="http://www.w3.org/1999/xlink" viewBox="0 0 1000 300" width="1000" height="300" role="img" aria-label="Princípio do dia (engenharia): Separação De Camadas. Interface, regras de negócio e dados vivem em camadas com papéis bem definidos. Na prática: Trocar o banco ou o framework não deveria reescrever o sistema inteiro.">
<defs>
    <linearGradient id="fundo" x1="0" y1="0" x2=".35" y2="1">
      <stop offset="0" stop-color="#121116"/><stop offset=".55" stop-color="#0A0A0C"/><stop offset="1" stop-color="#0D0C10"/>
    </linearGradient>
    <radialGradient id="aco" cx="50%" cy="50%" r="50%">
      <stop offset="0" stop-color="#7FA6C9" stop-opacity=".14"/><stop offset="1" stop-color="#7FA6C9" stop-opacity="0"/>
    </radialGradient>
    <radialGradient id="ouroAmb" cx="50%" cy="50%" r="50%">
      <stop offset="0" stop-color="#D4A24C" stop-opacity=".16"/><stop offset="1" stop-color="#D4A24C" stop-opacity="0"/>
    </radialGradient>
    <linearGradient id="fioTopo" x1="0" y1="0" x2="1" y2="0">
      <stop offset="0" stop-color="#fff" stop-opacity="0"/><stop offset=".5" stop-color="#F5D79A" stop-opacity=".5"/><stop offset="1" stop-color="#fff" stop-opacity="0"/>
    </linearGradient>
    <linearGradient id="borda" x1="0" y1="0" x2="1" y2="1">
      <stop offset="0" stop-color="#E2AE61" stop-opacity=".40"/><stop offset=".5" stop-color="#D4A24C" stop-opacity=".07"/><stop offset="1" stop-color="#7FA6C9" stop-opacity=".28"/>
    </linearGradient>
    <linearGradient id="ouro" x1="0" y1="0" x2="1" y2="0">
      <stop offset="0" stop-color="#BA8529"/><stop offset=".5" stop-color="#E2AE61"/><stop offset=".65" stop-color="#F5D79A"/><stop offset="1" stop-color="#D4A24C"/>
    </linearGradient>
    <linearGradient id="reflexo" x1="0" y1="0" x2="1" y2="0">
      <stop offset="0" stop-color="#fff" stop-opacity="0"/><stop offset=".5" stop-color="#fff" stop-opacity="1"/><stop offset="1" stop-color="#fff" stop-opacity="0"/>
    </linearGradient>
    <pattern id="pontos" width="22" height="22" patternUnits="userSpaceOnUse"><circle cx="11" cy="11" r=".85" fill="#7FA6C9"/></pattern>
    <clipPath id="card"><rect width="1000" height="300" rx="24"/></clipPath>
    <filter id="neon" x="-30%" y="-30%" width="160%" height="160%"><feGaussianBlur stdDeviation="7"/></filter>
    <filter id="neonFino" x="-60%" y="-60%" width="220%" height="220%"><feGaussianBlur stdDeviation="2.2"/></filter><path id="q0" d="M84 0V730H323Q394 730 446 703Q499 676 527 626Q556 577 556 510Q556 444 527 394Q498 344 446 317Q394 290 323 290H192V0ZM192 387H323Q379 387 412 420Q446 454 446 510Q446 567 412 600Q379 633 323 633H192Z"/><path id="q1" d="M84 0V730H313Q382 730 433 703Q484 677 513 629Q541 581 541 516Q541 443 504 389Q466 336 402 314L551 0H428L295 300H192V0ZM192 395H313Q367 395 399 428Q431 460 431 514Q431 570 399 602Q367 634 313 634H192Z"/><path id="q2" d="M98 0V96H245V634H98V730H502V634H355V96H502V0Z"/><path id="q3" d="M81 0V730H217L430 123Q428 152 425 192Q422 232 420 275Q419 318 419 353V730H519V0H383L171 607Q173 581 176 542Q178 503 180 461Q181 419 181 383V0Z"/><path id="q4" d="M304 -10Q236 -10 185 16Q135 41 107 90Q80 138 80 203V527Q80 593 107 641Q135 689 185 714Q236 740 304 740Q372 740 422 714Q472 688 500 640Q527 593 527 527H419Q419 584 389 614Q359 644 304 644Q249 644 218 614Q188 584 188 528V203Q188 147 218 116Q249 86 304 86Q359 86 389 116Q419 147 419 203H527Q527 138 500 90Q472 42 422 16Q372 -10 304 -10Z"/><path id="q5" d="M98 0V96H245V634H98V730H502V634H355V96H502V0ZM233 810 339 950H455L342 810Z"/><path id="q6" d="M300 -10Q232 -10 182 16Q133 41 106 90Q80 138 80 203V527Q80 593 106 641Q133 689 182 714Q232 740 300 740Q368 740 418 714Q467 689 494 641Q520 593 520 528V203Q520 138 494 90Q467 41 418 16Q368 -10 300 -10ZM300 86Q355 86 384 116Q412 147 412 203V527Q412 584 384 614Q355 644 300 644Q246 644 217 614Q188 584 188 527V203Q188 147 217 116Q246 86 300 86Z"/><path id="q7" d="M83 0V730H287Q359 730 412 702Q465 675 495 625Q524 575 524 507V224Q524 157 495 106Q465 55 412 28Q359 0 287 0ZM191 98H287Q347 98 381 132Q416 165 416 224V507Q416 565 381 598Q347 632 287 632H191Z"/><path id="q8" d="M43 0 229 730H371L557 0H448L404 185H197L153 0ZM217 274H383L333 485Q320 541 311 582Q303 624 300 639Q297 624 289 583Q281 541 267 486Z"/><path id="q9" d="M94 0V730H523V634H200V427H488V332H200V96H523V0Z"/><path id="qa" d="M304 -10Q236 -10 185 16Q135 41 107 90Q80 138 80 203V527Q80 593 107 641Q135 689 185 714Q236 740 304 740Q372 740 422 714Q472 688 500 640Q527 593 527 527H419Q419 584 389 614Q359 644 304 644Q249 644 218 614Q188 584 188 528V203Q188 147 218 116Q249 85 304 85Q359 85 389 116Q419 147 419 203V285H283V380H527V203Q527 138 500 90Q472 42 422 16Q372 -10 304 -10Z"/><path id="qb" d="M85 0V730H193V428H407V730H515V0H407V328H193V0Z"/><path id="qc" d="M300 -10Q233 -10 184 16Q134 43 107 92Q80 140 80 205V525Q80 591 107 639Q134 687 184 714Q233 740 300 740Q368 740 417 714Q466 687 493 639Q520 591 520 525V205Q520 140 493 92Q466 43 416 16Q367 -10 300 -10ZM300 67Q360 67 396 106Q433 144 433 205V525Q433 586 396 624Q360 663 300 663Q240 663 204 624Q167 586 167 525V205Q167 144 204 106Q240 67 300 67ZM300 306Q273 306 256 323Q240 340 240 368Q240 395 256 412Q273 428 300 428Q327 428 344 412Q360 395 360 368Q360 340 344 323Q327 306 300 306Z"/><path id="qd" d="M301 -10Q231 -10 178 20Q126 49 97 102Q68 155 68 225Q68 280 84 333Q99 386 130 435L313 730H413L206 398L210 395Q229 423 262 438Q295 453 336 453Q396 453 440 425Q484 397 508 346Q532 295 532 225Q532 155 503 102Q474 49 422 20Q371 -10 301 -10ZM300 70Q364 70 403 112Q442 155 442 225Q442 295 403 338Q364 380 300 380Q236 380 197 338Q158 295 158 225Q158 155 197 112Q236 70 300 70Z"/><path id="qe" d="M300 -10Q262 -10 240 12Q217 34 217 71Q217 110 240 133Q262 156 300 156Q338 156 360 133Q383 110 383 71Q383 34 360 12Q338 -10 300 -10Z"/><path id="qf" d="M90 0V82H288V655L90 507V607L255 730H378V82H540V0Z"/><path id="q10" d="M92 0V92L315 329Q372 390 398 438Q424 485 424 529Q424 590 390 625Q357 660 299 660Q235 660 198 624Q162 588 162 525H72Q74 591 102 640Q131 688 182 714Q232 740 299 740Q365 740 414 714Q462 689 488 642Q514 595 514 530Q514 468 481 407Q448 346 373 268L193 82H526V0Z"/><path id="q11" d="M277 714Q297 714 326 712Q356 710 387 706Q419 703 442 700Q466 696 475 692L463 557H453Q453 609 414 640Q376 672 312 672Q254 672 218 644Q183 616 181 576Q180 546 200 524Q220 502 251 483L442 359Q488 333 511 291Q535 249 532 193Q527 95 457 41Q387 -14 267 -14Q223 -14 181 -7Q140 1 108 15Q76 28 57 47Q49 69 50 100Q51 131 60 163Q68 195 81 216H90Q86 165 108 121Q131 78 175 53Q218 27 278 28Q344 29 380 61Q416 94 416 140Q416 171 398 196Q379 221 337 244L162 360Q109 390 85 437Q61 484 67 539Q71 591 97 630Q123 670 168 692Q214 714 277 714ZM476 704 474 683H356V704Z"/><path id="q12" d="M269 700V0H119V700ZM533 43 557 0H266V43ZM496 366V324H266V366ZM545 700V657H266V700ZM606 204 560 0H364L400 43Q450 43 488 63Q526 82 553 119Q580 155 596 204ZM496 326V230H486V239Q486 275 462 299Q438 323 401 324V326ZM496 460V364H401V366Q438 367 462 392Q486 416 486 452V460ZM545 660V543H535V555Q535 601 508 629Q480 657 433 658V660ZM545 718V689L423 700Q445 700 469 703Q494 706 515 710Q536 714 545 718ZM122 73V0H42V10Q42 10 48 10Q55 10 55 10Q81 10 99 28Q118 47 119 73ZM122 627H119Q118 653 99 672Q81 690 55 690Q55 690 48 690Q42 690 42 690L42 700H122Z"/><path id="q13" d="M259 700H379Q465 700 518 675Q572 650 599 607Q625 563 627 508Q629 457 610 415Q591 373 558 345Q524 317 482 305Q440 292 394 299Q349 305 306 333V343Q306 343 318 343Q331 343 350 347Q370 351 391 362Q413 373 432 396Q451 419 461 457Q465 470 466 487Q468 503 467 517Q466 581 432 620Q399 658 338 658H269Q269 658 266 668Q264 679 261 689Q259 700 259 700ZM272 700V0H122V700ZM125 73V0H45V10Q46 10 52 10Q57 10 58 10Q84 10 102 28Q121 47 122 73ZM125 627H122Q122 653 103 672Q84 690 58 690Q57 690 52 690Q47 690 46 690L45 700H125ZM269 73H272Q273 47 291 28Q310 10 336 10Q337 10 343 10Q348 10 349 10V0H269Z"/><path id="q14" d="M354 720 680 6H501L293 527ZM139 73Q131 53 136 39Q141 25 153 18Q165 10 177 10H186V0H-28V10Q-28 10 -24 10Q-19 10 -19 10Q4 10 28 24Q53 39 69 73ZM354 720 358 598 110 3H37L296 589Q299 595 306 611Q314 628 322 649Q331 670 338 690Q345 709 345 720ZM459 238V196H165V238ZM474 73H649Q666 39 690 24Q714 10 737 10Q737 10 741 10Q745 10 745 10V0H427V10H436Q456 10 471 26Q486 43 474 73Z"/><path id="q15" d="M259 700H388Q433 700 476 690Q519 680 553 658Q586 636 606 600Q626 564 626 511Q626 469 608 428Q591 386 555 356Q519 327 462 321Q494 311 521 285Q547 259 564 233Q565 231 576 215Q586 199 601 175Q617 152 634 128Q651 104 665 86Q687 59 705 42Q723 26 743 18Q763 11 789 10V0H691Q637 0 593 10Q549 20 515 42Q481 65 456 104Q448 116 439 135Q429 153 419 174Q409 195 399 214Q390 234 383 250Q376 266 373 275Q360 307 342 323Q325 339 305 342V352Q308 352 317 352Q326 352 336 352Q363 352 389 363Q414 374 434 399Q454 424 462 468Q464 477 465 489Q467 501 466 516Q463 588 430 621Q397 655 348 656Q334 657 317 656Q301 656 288 656Q274 656 269 656Q269 657 267 667Q264 678 262 689Q259 700 259 700ZM272 700V0H122V700ZM125 73V0H45V10Q46 10 52 10Q57 10 58 10Q84 10 102 28Q121 47 122 73ZM125 627H122Q121 653 102 672Q84 690 58 690Q57 690 52 690Q46 690 45 690V700H125ZM269 73H272Q272 47 291 28Q310 10 336 10Q338 10 343 10Q348 10 348 10V0H269Z"/><path id="q16" d="M722 292 731 120Q709 83 672 53Q635 23 580 4Q525 -14 450 -14Q328 -13 237 30Q145 74 95 155Q45 236 45 351Q45 463 94 545Q143 626 235 670Q326 714 453 714Q533 714 597 698Q660 682 702 659L704 488H695Q668 587 607 629Q546 672 464 672Q384 672 327 633Q270 594 239 523Q208 452 208 353Q208 254 238 182Q267 110 322 70Q376 30 450 28Q527 28 580 53Q633 78 666 136Q698 194 714 292ZM405 -8H453L411 -57Q425 -52 444 -52Q463 -51 482 -57Q501 -63 513 -77Q525 -92 524 -118Q523 -151 497 -174Q470 -197 432 -204Q393 -211 354 -198L355 -188Q376 -188 399 -181Q421 -174 437 -159Q452 -143 454 -117Q455 -96 440 -86Q424 -75 402 -74Q380 -73 362 -81Q362 -81 359 -76Q357 -71 357 -71Z"/><path id="q17" d="M354 720 680 6H501L293 527ZM139 73Q131 53 136 39Q141 25 153 18Q165 10 177 10H186V0H-28V10Q-28 10 -24 10Q-19 10 -19 10Q4 10 28 24Q53 39 69 73ZM354 720 358 598 110 3H37L296 589Q299 595 306 611Q314 628 322 649Q331 670 338 690Q345 709 345 720ZM459 238V196H165V238ZM474 73H649Q666 39 690 24Q714 10 737 10Q737 10 741 10Q745 10 745 10V0H427V10H436Q456 10 471 26Q486 43 474 73ZM201 767H212Q217 779 228 791Q239 803 255 810Q271 816 289 814Q316 811 338 799Q361 787 384 776Q407 765 434 764Q462 764 483 776Q503 789 515 808Q527 828 531 850Q535 872 531 890H520Q516 881 505 870Q494 860 478 854Q462 848 443 850Q414 853 391 865Q368 877 346 888Q324 899 297 899Q270 899 250 886Q231 873 219 853Q208 833 203 810Q198 787 201 767Z"/><path id="q18" d="M442 714Q562 714 651 670Q739 625 788 544Q836 463 836 350Q836 238 788 156Q739 75 651 30Q562 -14 442 -14Q322 -14 234 30Q145 75 97 156Q49 237 49 350Q49 462 97 544Q145 625 234 670Q322 714 442 714ZM442 28Q513 28 564 67Q616 107 643 179Q671 251 671 350Q671 449 643 521Q616 593 564 633Q513 672 442 672Q372 672 320 633Q269 593 241 521Q213 449 213 350Q213 251 241 179Q269 107 320 67Q372 28 442 28Z"/><path id="q19" d="M405 700Q523 700 609 658Q695 615 742 537Q788 458 788 350Q788 242 742 163Q695 85 609 42Q523 0 405 0H167L166 42Q195 42 226 42Q258 42 288 42Q317 42 341 42Q365 42 379 42Q393 42 393 42Q465 42 517 80Q569 117 597 186Q625 255 625 350Q625 445 597 514Q569 583 517 620Q465 658 393 658Q393 658 378 658Q364 658 339 658Q314 658 283 658Q252 658 219 658Q186 658 156 658V700ZM269 700V0H119V700ZM122 73V0H42V10Q42 10 48 10Q55 10 55 10Q81 10 99 28Q118 47 119 73ZM122 627H119Q119 653 100 672Q81 690 55 690Q55 690 49 690Q43 690 43 690L42 700H122Z"/><path id="q1a" d="M722 292 731 120Q709 83 672 53Q635 23 580 4Q525 -14 450 -14Q328 -13 237 30Q145 74 95 155Q45 236 45 351Q45 463 94 545Q143 626 235 670Q326 714 453 714Q533 714 597 698Q660 682 702 659L704 488H695Q668 587 607 629Q546 672 464 672Q384 672 327 633Q270 594 239 523Q208 452 208 353Q208 254 238 182Q267 110 322 70Q376 30 450 28Q527 28 580 53Q633 78 666 136Q698 194 714 292Z"/><path id="q1b" d="M780 714 788 605 491 90Q491 90 481 73Q471 55 462 30Q452 5 452 -20H442L403 67ZM102 73V0H-9V10Q-8 10 -1 10Q7 10 7 10Q34 10 55 26Q76 43 80 73ZM146 57Q146 56 146 55Q146 54 146 52Q146 36 157 22Q169 9 185 9H201V0H139V57ZM163 714H172L207 614L140 0H71ZM172 714 499 177 442 -20 146 477ZM789 714 884 0H723L673 460L780 714ZM853 73H874Q879 43 900 26Q921 10 947 10Q947 10 955 10Q963 10 963 10V0H853ZM717 57H724V0H663V9H678Q695 9 706 22Q717 36 717 52Q717 54 717 55Q717 56 717 57Z"/><path id="q1c" d="M80 700V0H165V700Z"/><path id="q1d" d="M370 280V0H450V290Q450 373 408 422Q365 470 292 470Q247 470 212 450Q178 430 155 388V460H75V0H155V280Q155 314 170 340Q184 366 210 380Q237 395 272 395Q320 395 345 366Q370 337 370 280Z"/><path id="q1e" d="M5 460V385H235V460ZM80 620V0H160V620Z"/><path id="q1f" d="M253 -10Q327 -10 382 20Q436 49 472 107L407 148Q382 106 346 86Q310 65 263 65Q216 65 183 85Q150 105 133 143Q116 181 116 235Q117 288 134 324Q152 361 184 380Q217 400 263 400Q302 400 331 383Q360 366 376 336Q393 306 393 265Q393 258 390 248Q387 237 384 232L416 278H86V210H479Q479 212 480 220Q480 227 480 234Q480 307 454 360Q428 413 380 442Q331 470 263 470Q195 470 144 440Q92 410 64 356Q35 302 35 230Q35 159 62 105Q90 51 140 20Q189 -10 253 -10Z"/><path id="q20" d="M155 460H75V0H155ZM294 372 338 438Q320 457 298 464Q277 470 252 470Q220 470 189 445Q158 420 138 378Q119 335 119 280H155Q155 313 162 339Q168 365 185 380Q202 395 232 395Q252 395 265 390Q278 384 294 372Z"/><path id="q21" d="M40 460V385H270V460ZM262 684 306 750Q299 760 286 769Q274 778 257 784Q240 790 218 790Q176 790 146 772Q117 755 101 720Q85 685 85 630V0H165V620Q165 653 171 673Q177 693 188 702Q198 710 213 710Q225 710 238 706Q252 701 262 684Z"/><path id="q22" d="M111 142Q111 167 123 185Q135 203 160 213Q184 223 223 223Q265 223 302 212Q339 202 374 178V225Q367 234 347 248Q327 263 294 274Q260 286 210 286Q125 286 78 246Q30 205 30 138Q30 91 52 58Q74 25 110 8Q147 -10 189 -10Q227 -10 266 4Q304 18 330 47Q357 76 357 120L341 180Q341 144 324 116Q306 89 276 74Q247 59 210 59Q181 59 158 68Q136 78 124 97Q111 116 111 142ZM99 354Q110 362 129 373Q148 384 176 392Q203 400 237 400Q258 400 277 396Q296 392 310 383Q325 374 333 358Q341 343 341 319V0H421V330Q421 375 398 406Q376 437 336 454Q295 470 241 470Q177 470 132 451Q86 432 60 413Z"/><path id="q23" d="M111 230Q111 278 132 316Q152 353 188 374Q223 395 268 395Q305 395 338 384Q370 372 394 353Q418 334 428 311V411Q404 439 360 454Q315 470 268 470Q201 470 147 439Q93 408 62 354Q30 300 30 230Q30 161 62 106Q93 52 147 21Q201 -10 268 -10Q315 -10 360 6Q404 21 428 49V149Q418 127 394 108Q370 88 338 76Q305 65 268 65Q223 65 188 86Q152 108 132 145Q111 182 111 230Z"/><path id="q24" d="M148 110 60 -149 118 -170 228 80Z"/><path id="q25" d="M44 -30Q44 -89 73 -134Q102 -180 154 -205Q205 -230 272 -230Q330 -230 382 -203Q434 -176 467 -122Q500 -69 500 10V460H420V10Q420 -48 398 -84Q375 -121 341 -138Q307 -155 272 -155Q227 -155 194 -138Q161 -120 143 -92Q125 -63 125 -30ZM35 230Q35 156 66 102Q97 48 149 19Q201 -10 263 -10Q321 -10 364 19Q407 48 432 102Q456 156 456 230Q456 305 432 358Q407 412 364 441Q321 470 263 470Q201 470 149 441Q97 412 66 358Q35 305 35 230ZM116 230Q116 283 138 320Q159 357 195 376Q231 395 273 395Q299 395 325 384Q351 373 372 352Q394 331 407 300Q420 270 420 230Q420 177 398 140Q376 103 342 84Q308 65 273 65Q231 65 195 84Q159 103 138 140Q116 177 116 230Z"/><path id="q26" d="M94 141 31 102Q44 75 70 49Q95 23 132 6Q169 -10 215 -10Q286 -10 330 30Q373 70 373 130Q373 171 354 197Q334 223 301 242Q268 260 228 276Q204 286 182 297Q160 308 146 322Q132 336 132 354Q132 377 150 388Q168 399 193 399Q229 399 258 382Q286 365 305 339L369 380Q355 406 330 426Q305 446 272 458Q240 470 203 470Q166 470 132 457Q97 444 76 417Q54 390 54 349Q54 309 74 282Q95 256 126 240Q156 223 186 211Q213 201 237 190Q261 178 276 162Q292 145 292 121Q292 94 272 78Q253 63 219 63Q191 63 168 74Q144 84 126 102Q108 120 94 141Z"/><path id="q27" d="M420 780V0H500V780ZM35 230Q35 156 66 102Q97 48 149 19Q201 -10 263 -10Q321 -10 364 19Q407 48 432 102Q456 156 456 230Q456 305 432 358Q407 412 364 441Q321 470 263 470Q201 470 149 441Q97 412 66 358Q35 305 35 230ZM116 230Q116 283 138 320Q159 357 195 376Q231 395 273 395Q308 395 342 376Q376 357 398 320Q420 283 420 230Q420 177 398 140Q376 103 342 84Q308 65 273 65Q231 65 195 84Q159 103 138 140Q116 177 116 230Z"/><path id="q28" d="M35 230Q35 161 66 106Q98 52 152 21Q206 -10 273 -10Q341 -10 394 21Q448 52 480 106Q511 161 511 230Q511 300 480 354Q448 408 394 439Q341 470 273 470Q206 470 152 439Q98 408 66 354Q35 300 35 230ZM116 230Q116 278 136 316Q157 353 192 374Q228 395 273 395Q318 395 354 374Q389 353 410 316Q430 278 430 230Q430 182 410 145Q389 108 354 86Q318 65 273 65Q228 65 192 86Q157 108 136 145Q116 182 116 230ZM433 700 358 740 208 580 253 550Z"/><path id="q29" d="M75 650Q75 628 92 612Q108 595 130 595Q153 595 169 612Q185 628 185 650Q185 673 169 689Q153 705 130 705Q108 705 92 689Q75 673 75 650ZM90 460V0H170V460Z"/><path id="q2a" d="M35 230Q35 161 66 106Q98 52 152 21Q206 -10 273 -10Q341 -10 394 21Q448 52 480 106Q511 161 511 230Q511 300 480 354Q448 408 394 439Q341 470 273 470Q206 470 152 439Q98 408 66 354Q35 300 35 230ZM116 230Q116 278 136 316Q157 353 192 374Q228 395 273 395Q318 395 354 374Q389 353 410 316Q430 278 430 230Q430 182 410 145Q389 108 354 86Q318 65 273 65Q228 65 192 86Q157 108 136 145Q116 182 116 230Z"/><path id="q2b" d="M0 460 220 -35 440 460H350L220 135L90 460Z"/><path id="q2c" d="M705 290Q705 347 688 388Q670 428 637 449Q604 470 557 470Q511 470 475 448Q439 427 415 384Q399 425 364 448Q330 470 282 470Q239 470 208 451Q176 432 155 393V460H75V0H155V280Q155 316 168 342Q181 368 205 382Q229 395 262 395Q307 395 328 367Q350 339 350 280V0H430V280Q430 316 443 342Q456 368 480 382Q504 395 537 395Q582 395 604 367Q625 339 625 280V0H705Z"/><path id="q2d" d="M150 -220V460H70V-220ZM535 230Q535 305 504 358Q473 412 422 441Q370 470 307 470Q250 470 206 441Q163 412 138 358Q114 305 114 230Q114 156 138 102Q163 48 206 19Q250 -10 307 -10Q370 -10 422 19Q473 48 504 102Q535 156 535 230ZM454 230Q454 177 432 140Q411 103 376 84Q340 65 297 65Q262 65 228 84Q194 103 172 140Q150 177 150 230Q150 283 172 320Q194 357 228 376Q262 395 297 395Q340 395 376 376Q411 357 432 320Q454 283 454 230Z"/><path id="q2e" d="M86 210H479Q480 216 480 222Q480 228 480 234Q480 307 453 360Q426 412 377 441Q328 470 263 470Q204 470 156 446Q109 422 79 379Q49 336 39 279Q37 267 36 255Q35 243 35 230Q35 161 64 106Q92 52 142 21Q191 -10 253 -10Q313 -10 353 4Q393 19 421 46Q449 72 472 107L407 148Q392 123 371 104Q350 86 324 76Q297 65 263 65Q218 65 185 84Q152 103 134 140Q116 177 116 230L118 260Q118 303 138 334Q157 366 190 383Q223 400 263 400Q303 400 330 384Q358 369 374 342Q389 314 393 278H86ZM423 690 348 730 198 570 243 540Z"/><path id="q2f" d="M150 780H70V0H150ZM535 230Q535 305 504 358Q473 412 422 441Q370 470 307 470Q250 470 206 441Q163 412 138 358Q114 305 114 230Q114 156 138 102Q163 48 206 19Q250 -10 307 -10Q370 -10 422 19Q473 48 504 102Q535 156 535 230ZM454 230Q454 177 432 140Q411 103 376 84Q340 65 297 65Q262 65 228 84Q194 103 172 140Q150 177 150 230Q150 283 172 320Q194 357 228 376Q262 395 297 395Q340 395 376 376Q411 357 432 320Q454 283 454 230Z"/><path id="q30" d="M95 40Q95 18 112 2Q128 -15 150 -15Q173 -15 189 2Q205 18 205 40Q205 63 189 79Q173 95 150 95Q128 95 112 79Q95 63 95 40Z"/><path id="q31" d="M10 620H190V0H275V620H455V700H10Z"/><path id="q32" d="M155 180V460H75V170Q75 88 118 39Q161 -10 233 -10Q279 -10 313 10Q347 31 370 72V0H450V460H370V180Q370 146 356 120Q341 94 314 80Q288 65 253 65Q205 65 180 95Q155 125 155 180Z"/><path id="q33" d="M5 460 205 -35 336 300 475 -35 675 460H585L469 159L335 495L210 161L95 460Z"/><path id="q34" d="M70 780V0H150V780ZM320 460 120 270 340 0H440L220 270L420 460Z"/><path id="q35" d="M111 135Q111 163 124 183Q137 203 164 214Q190 225 230 225Q274 225 309 214Q344 202 378 178V225Q371 234 352 248Q333 263 302 274Q270 286 226 286Q171 286 126 268Q82 250 56 214Q30 179 30 125Q30 83 50 53Q69 23 105 6Q141 -10 188 -10Q236 -10 275 6Q314 23 338 54Q361 86 361 130L345 180Q345 137 328 111Q310 85 279 73Q248 61 208 61Q176 61 154 70Q133 78 122 94Q111 111 111 135ZM111 352Q122 360 142 372Q161 383 188 392Q215 400 248 400Q286 400 316 382Q345 365 345 330V0H425V330Q425 375 402 406Q380 437 340 454Q301 470 248 470Q186 470 142 451Q98 432 72 413ZM83 567 136 530Q136 538 140 550Q144 562 155 572Q166 581 186 581Q209 581 226 570Q242 558 261 546Q280 534 307 534Q332 534 353 544Q374 555 390 572Q405 589 413 607L367 650Q352 626 338 614Q325 602 311 602Q291 602 278 609Q265 616 254 626Q242 635 226 642Q211 649 187 649Q165 649 142 638Q120 628 104 610Q88 592 83 567Z"/><path id="q36" d="M50 0 240 730H361L550 0H459L411 194H190L142 0ZM208 270H392L336 495Q320 559 311 602Q302 645 300 658Q298 645 289 602Q280 559 264 496Z"/><path id="q37" d="M255 0V649H55V731H545V649H345V0Z"/><path id="q38" d="M300 -10Q198 -10 144 46Q90 103 90 200V730H180V200Q180 140 210 105Q239 70 300 70Q360 70 390 105Q420 140 420 200V730H510V200Q510 102 456 46Q403 -10 300 -10Z"/><path id="q39" d="M115 0V730H205V82H535V0Z"/><path id="q3a" d="M105 0V82H254V648H105V730H495V648H346V82H495V0Z"/><path id="q3b" d="M85 0V90L414 648H90V730H505V640L176 82H515V0Z"/><path id="q3c" d="M92 0V730H281Q352 730 404 703Q455 676 484 627Q512 578 512 511V220Q512 153 484 104Q455 54 404 27Q352 0 281 0ZM182 80H281Q347 80 384 117Q422 154 422 220V511Q422 576 384 613Q347 650 281 650H182Z"/><path id="q3d" d="M300 -10Q234 -10 186 15Q139 40 114 88Q88 135 88 200V530Q88 596 114 643Q139 690 186 715Q234 740 300 740Q366 740 414 715Q461 690 486 643Q512 596 512 531V200Q512 135 486 88Q461 40 414 15Q366 -10 300 -10ZM300 71Q359 71 390 104Q422 138 422 200V530Q422 592 390 626Q359 659 300 659Q242 659 210 626Q178 592 178 530V200Q178 138 210 104Q242 71 300 71Z"/><path id="q3e" d="M76 0V730H194L270 494Q281 462 290 430Q299 399 303 382Q308 399 316 430Q324 462 334 495L406 730H524V0H436V265Q436 309 439 365Q442 421 447 480Q452 538 458 592Q463 645 467 685L349 320H254L135 685Q140 646 145 594Q150 543 154 486Q158 428 161 371Q164 314 164 265V0Z"/><path id="q3f" d="M304 -10Q238 -10 190 15Q141 40 114 88Q88 135 88 200V530Q88 596 114 643Q141 690 190 715Q238 740 304 740Q370 740 418 714Q466 689 492 642Q518 595 518 530H428Q428 592 396 626Q363 659 304 659Q245 659 212 626Q178 593 178 531V200Q178 138 212 104Q245 71 304 71Q363 71 396 104Q428 138 428 200H518Q518 136 492 88Q466 41 418 16Q370 -10 304 -10Z"/><path id="q40" d="M100 0V730H520V648H189V422H485V341H189V82H520V0Z"/><path id="q41" d="M90 0V730H210L433 105Q431 130 428 166Q426 203 424 244Q423 284 423 320V730H510V0H390L168 625Q170 601 172 564Q174 528 176 488Q177 447 177 410V0Z"/><path id="q42" d="M92 0V730H318Q383 730 432 704Q481 677 508 630Q535 583 535 520Q535 446 496 393Q458 340 392 320L545 0H439L299 310H182V0ZM182 391H318Q374 391 408 426Q442 462 442 520Q442 579 408 614Q374 649 318 649H182Z"/><path id="q43" d="M304 -10Q238 -10 190 15Q141 40 114 88Q88 135 88 200V530Q88 596 114 643Q141 690 190 715Q238 740 304 740Q370 740 418 714Q466 689 492 642Q518 595 518 530H428Q428 592 396 626Q363 659 304 659Q245 659 212 626Q178 593 178 531V200Q178 138 212 104Q245 70 304 70Q363 70 396 104Q428 138 428 200V290H280V372H518V200Q518 136 492 88Q466 41 418 16Q370 -10 304 -10Z"/><path id="q44" d="M300 260Q262 260 240 282Q217 304 217 341Q217 380 240 403Q262 426 300 426Q338 426 360 403Q383 380 383 341Q383 304 360 282Q338 260 300 260Z"/><path id="q45" d="M75 -110 430 830H525L170 -110Z"/><path id="q46" d="M410 0V160H80V301L369 730H467L170 282V242H410V420H500V0Z"/><path id="q47" d="M246 0V631H51V731H549V631H354V0Z"/><path id="q48" d="M88 0V731H529V631H193V413H503V313H195V0Z"/><path id="q49" d="M303 -10Q229 -10 176 15Q123 39 94 85Q65 130 65 193H172Q172 143 207 115Q242 86 304 86Q362 86 395 114Q428 142 428 191Q428 232 405 262Q383 292 341 303L249 330Q169 353 125 408Q82 464 82 541Q82 601 109 646Q136 691 186 716Q236 741 304 741Q404 741 465 687Q525 633 526 542H418Q418 590 388 618Q357 645 302 645Q249 645 219 620Q189 594 189 548Q189 507 212 477Q234 447 276 435L369 407Q449 385 492 329Q535 273 535 195Q535 134 506 87Q477 41 425 16Q373 -10 303 -10Z"/><path id="q4a" d="M300 -10Q232 -10 182 16Q133 41 106 90Q80 138 80 203V527Q80 593 106 641Q133 689 182 714Q232 740 300 740Q368 740 418 714Q467 689 494 641Q520 593 520 528V203Q520 138 494 90Q467 41 418 16Q368 -10 300 -10ZM300 86Q355 86 384 116Q412 147 412 203V527Q412 584 384 614Q355 644 300 644Q246 644 217 614Q188 584 188 527V203Q188 147 217 116Q246 86 300 86ZM233 810 339 950H455L342 810Z"/><path id="q4b" d="M304 -10Q232 -10 180 14Q129 38 101 83Q73 128 72 190H162Q162 135 200 103Q237 71 304 71Q367 71 402 102Q438 133 438 188Q438 232 414 265Q391 298 347 311L248 342Q173 365 132 419Q92 473 92 546Q92 605 118 648Q145 692 193 716Q241 741 306 741Q402 741 460 688Q518 634 519 545H429Q429 599 396 630Q364 660 305 660Q247 660 214 632Q182 604 182 554Q182 509 206 476Q230 443 275 429L375 397Q448 374 488 319Q528 264 528 190Q528 130 500 85Q472 40 422 15Q371 -10 304 -10Z"/><path id="q4c" d="M92 0V730H327Q395 730 445 704Q495 677 522 629Q550 581 550 515Q550 450 522 402Q495 353 445 326Q395 300 327 300H182V0ZM182 381H327Q386 381 422 418Q457 454 457 515Q457 577 422 613Q386 649 327 649H182Z"/>
<style>
      .sobe { animation: sobe 1s cubic-bezier(.2,.7,.3,1) both }
      @keyframes sobe { from{opacity:0;transform:translateY(12px)} to{opacity:1;transform:translateY(0)} }
      .surge { animation: surge 1.4s ease both }
      @keyframes surge { from{opacity:0} to{opacity:1} }
      .pisca { animation: pisca 2.6s ease-in-out infinite }
      @keyframes pisca { 0%,100%{opacity:.25} 50%{opacity:1} }
      @media (prefers-reduced-motion: reduce) { *{ animation:none !important } }
      .cReq { animation: cReq 6s cubic-bezier(.5,0,.5,1) infinite }
      @keyframes cReq { 0%{transform:translateY(0)} 25%{transform:translateY(116px)} 30%{transform:translateY(116px)} 55%{transform:translateY(0)} 100%{transform:translateY(0)} }
      .cLuz { opacity:0; animation: cLuz 6s ease infinite }
      @keyframes cLuz { 0%{opacity:0} 4%{opacity:1} 16%{opacity:0} 100%{opacity:0} }
      .cresce { transform-box:fill-box; transform-origin:left; animation: cresce 1.1s cubic-bezier(.2,.7,.3,1) .4s both }
      @keyframes cresce { from{transform:scaleX(0)} to{transform:scaleX(1)} }
</style></defs>
<g clip-path="url(#card)">
  <rect width="1000" height="300" fill="url(#fundo)"/><rect width="1000" height="300" fill="url(#pontos)" opacity="0.1"/>
    <ellipse cx="80" cy="300" rx="350" ry="150" fill="url(#aco)"/>
    <ellipse cx="940" cy="0" rx="300" ry="135" fill="url(#aco)" opacity=".7"/><ellipse cx="250" cy="120" rx="360" ry="200" fill="url(#ouroAmb)"/>
    <path d="M620 0 L740 0 L560 300 L440 300 Z" fill="#fff" opacity=".016"/>
  <g class="sobe"><path d="M56.0 52.0L60.0 56.0L56.0 60.0L52.0 56.0Z" fill="#E2AE61"/><g transform="translate(70.0 60.0) scale(0.01050 -0.01050)" fill="#E2AE61"><use href="#q0" x="0"/><use href="#q1" x="924"/><use href="#q2" x="1848"/><use href="#q3" x="2771"/><use href="#q4" x="3695"/><use href="#q5" x="4619"/><use href="#q0" x="5543"/><use href="#q2" x="6467"/><use href="#q6" x="7390"/><use href="#q7" x="9238"/><use href="#q6" x="10162"/><use href="#q7" x="12010"/><use href="#q2" x="12933"/><use href="#q8" x="13857"/></g><rect x="248" y="45" width="98" height="20" rx="10" fill="#7FA6C9" fill-opacity=".1" stroke="#7FA6C9" stroke-opacity=".55"/><g transform="translate(259.0 58.5) scale(0.00900 -0.00900)" fill="#7FA6C9"><use href="#q9" x="0"/><use href="#q3" x="867"/><use href="#qa" x="1733"/><use href="#q9" x="2600"/><use href="#q3" x="3467"/><use href="#qb" x="4333"/><use href="#q8" x="5200"/><use href="#q1" x="6067"/><use href="#q2" x="6933"/><use href="#q8" x="7800"/></g><g transform="translate(528.6 60.0) scale(0.00950 -0.00950)" fill="#A8A6A0"><use href="#qc" x="0"/><use href="#qd" x="768"/><use href="#qe" x="1537"/><use href="#qf" x="2305"/><use href="#qc" x="3074"/><use href="#qe" x="3842"/><use href="#q10" x="4611"/><use href="#qc" x="5379"/><use href="#q10" x="6147"/><use href="#qd" x="6916"/></g><mask id="qmo1" maskUnits="userSpaceOnUse" x="50" y="78" width="560" height="44"><g fill="#fff"><g transform="translate(52.0 112.0) scale(0.03400 -0.03400)"><use href="#q11" x="0"/><use href="#q12" x="613"/><use href="#q13" x="1281"/><use href="#q14" x="1972"/><use href="#q15" x="2724"/><use href="#q14" x="3506"/><use href="#q16" x="4259"/><use href="#q17" x="5074"/><use href="#q18" x="5826"/><use href="#q19" x="7026"/><use href="#q12" x="7889"/><use href="#q1a" x="8842"/><use href="#q14" x="9657"/><use href="#q1b" x="10409"/><use href="#q14" x="11398"/><use href="#q19" x="12150"/><use href="#q14" x="13013"/><use href="#q11" x="13766"/></g></g></mask><rect x="50" y="78" width="560" height="44" fill="url(#ouro)" mask="url(#qmo1)"/><rect class="cresce" x="52" y="128" width="56" height="2" rx="1" fill="url(#ouro)"/><g transform="translate(52.0 160.0) scale(0.01600 -0.01600)" fill="#F5F1E8" fill-opacity=".9"><use href="#q1c" x="0"/><use href="#q1d" x="251"/><use href="#q1e" x="782"/><use href="#q1f" x="1029"/><use href="#q20" x="1550"/><use href="#q21" x="1899"/><use href="#q22" x="2192"/><use href="#q23" x="2679"/><use href="#q1f" x="3163"/><use href="#q24" x="3684"/><use href="#q20" x="4305"/><use href="#q1f" x="4654"/><use href="#q25" x="5175"/><use href="#q20" x="5752"/><use href="#q22" x="6101"/><use href="#q26" x="6588"/><use href="#q27" x="7304"/><use href="#q1f" x="7880"/><use href="#q1d" x="8707"/><use href="#q1f" x="9238"/><use href="#q25" x="9760"/><use href="#q28" x="10336"/><use href="#q23" x="10888"/><use href="#q29" x="11372"/><use href="#q2a" x="11639"/><use href="#q1f" x="12497"/><use href="#q27" x="13325"/><use href="#q22" x="13901"/><use href="#q27" x="14388"/><use href="#q2a" x="14964"/><use href="#q26" x="15517"/><use href="#q2b" x="16232"/><use href="#q29" x="16678"/><use href="#q2b" x="16945"/><use href="#q1f" x="17391"/><use href="#q2c" x="17912"/><use href="#q1f" x="19005"/><use href="#q2c" x="19526"/><use href="#q23" x="20618"/><use href="#q22" x="21103"/><use href="#q2c" x="21590"/><use href="#q22" x="22376"/><use href="#q27" x="22864"/><use href="#q22" x="23440"/><use href="#q26" x="23927"/><use href="#q23" x="24642"/><use href="#q2a" x="25127"/><use href="#q2c" x="25679"/><use href="#q2d" x="26772"/><use href="#q22" x="27348"/><use href="#q2d" x="27835"/><use href="#q2e" x="28411"/><use href="#q29" x="28932"/><use href="#q26" x="29199"/><use href="#q2f" x="29914"/><use href="#q1f" x="30490"/><use href="#q2c" x="31012"/></g><g transform="translate(52.0 183.0) scale(0.01600 -0.01600)" fill="#F5F1E8" fill-opacity=".9"><use href="#q27" x="0"/><use href="#q1f" x="576"/><use href="#q21" x="1098"/><use href="#q29" x="1390"/><use href="#q1d" x="1656"/><use href="#q29" x="2187"/><use href="#q27" x="2454"/><use href="#q2a" x="3030"/><use href="#q26" x="3582"/><use href="#q30" x="3991"/></g><rect x="52" y="202" width="2" height="20" fill="#7FA6C9" opacity=".7"/><g transform="translate(66.0 214.0) scale(0.01350 -0.01350)" fill="#A8A6A0"><use href="#q31" x="0"/><use href="#q20" x="472"/><use href="#q2a" x="823"/><use href="#q23" x="1376"/><use href="#q22" x="1862"/><use href="#q20" x="2350"/><use href="#q2a" x="3008"/><use href="#q2f" x="3869"/><use href="#q22" x="4446"/><use href="#q1d" x="4934"/><use href="#q23" x="5467"/><use href="#q2a" x="5952"/><use href="#q2a" x="6813"/><use href="#q32" x="7367"/><use href="#q2a" x="8206"/><use href="#q21" x="9067"/><use href="#q20" x="9361"/><use href="#q22" x="9711"/><use href="#q2c" x="10199"/><use href="#q1f" x="10987"/><use href="#q33" x="11509"/><use href="#q2a" x="12197"/><use href="#q20" x="12750"/><use href="#q34" x="13100"/><use href="#q1d" x="13855"/><use href="#q35" x="14388"/><use href="#q2a" x="14880"/><use href="#q27" x="15741"/><use href="#q1f" x="16318"/><use href="#q2b" x="16841"/><use href="#q1f" x="17288"/><use href="#q20" x="17810"/><use href="#q29" x="18161"/><use href="#q22" x="18428"/><use href="#q20" x="19224"/><use href="#q1f" x="19575"/><use href="#q1f" x="20097"/><use href="#q26" x="20619"/><use href="#q23" x="21030"/><use href="#q20" x="21515"/><use href="#q1f" x="21866"/><use href="#q2b" x="22388"/><use href="#q1f" x="22835"/><use href="#q20" x="23358"/><use href="#q2a" x="24016"/><use href="#q26" x="24876"/><use href="#q29" x="25287"/><use href="#q26" x="25554"/><use href="#q1e" x="25965"/><use href="#q1f" x="26212"/><use href="#q2c" x="26734"/><use href="#q22" x="27522"/><use href="#q29" x="28318"/><use href="#q1d" x="28585"/><use href="#q1e" x="29117"/><use href="#q1f" x="29365"/><use href="#q29" x="29887"/><use href="#q20" x="30155"/><use href="#q2a" x="30505"/><use href="#q30" x="31059"/></g><circle class="pisca" cx="55" cy="267" r="2.4" fill="#E2AE61"/><g transform="translate(66.0 270.0) scale(0.00850 -0.00850)" fill="#A8A6A0" fill-opacity=".7"><use href="#q36" x="0"/><use href="#q37" x="812"/><use href="#q38" x="1624"/><use href="#q36" x="2435"/><use href="#q39" x="3247"/><use href="#q3a" x="4059"/><use href="#q3b" x="4871"/><use href="#q36" x="5682"/><use href="#q3c" x="6494"/><use href="#q3d" x="7306"/><use href="#q36" x="8929"/><use href="#q38" x="9741"/><use href="#q37" x="10553"/><use href="#q3d" x="11365"/><use href="#q3e" x="12176"/><use href="#q36" x="12988"/><use href="#q37" x="13800"/><use href="#q3a" x="14612"/><use href="#q3f" x="15424"/><use href="#q36" x="16235"/><use href="#q3e" x="17047"/><use href="#q40" x="17859"/><use href="#q41" x="18671"/><use href="#q37" x="19482"/><use href="#q40" x="20294"/><use href="#q37" x="21918"/><use href="#q3d" x="22729"/><use href="#q3c" x="23541"/><use href="#q36" x="24353"/><use href="#q3e" x="25976"/><use href="#q36" x="26788"/><use href="#q3c" x="27600"/><use href="#q42" x="28412"/><use href="#q38" x="29224"/><use href="#q43" x="30035"/><use href="#q36" x="30847"/><use href="#q3c" x="31659"/><use href="#q36" x="32471"/><use href="#q44" x="34906"/><use href="#qf" x="37341"/><use href="#qc" x="38153"/><use href="#q45" x="38965"/><use href="#qf" x="39776"/><use href="#q46" x="40588"/></g></g>
  <g class="surge" style="animation-delay:.3s"><rect x="640" y="40" width="308" height="220" rx="14" fill="#0E0D12" stroke="#D4A24C" stroke-opacity=".18"/><rect x="670" y="40" width="248" height="1" fill="url(#fioTopo)"/><g transform="translate(640 40)"><rect x="54" y="18" width="200" height="40" rx="8" fill="#141319" stroke="#E2AE61" stroke-opacity=".45"/><rect class="cLuz" style="animation-delay:0s" x="54" y="18" width="200" height="40" rx="8" fill="#D4A24C" fill-opacity=".1" stroke="#F5D79A"/><g transform="translate(121.7 41.5) scale(0.00900 -0.00900)" fill="#E2AE61"><use href="#q2" x="0"/><use href="#q3" x="822"/><use href="#q47" x="1644"/><use href="#q9" x="2467"/><use href="#q1" x="3289"/><use href="#q48" x="4111"/><use href="#q8" x="4933"/><use href="#q4" x="5756"/><use href="#q9" x="6578"/></g><rect x="54" y="76" width="200" height="40" rx="8" fill="#141319" stroke="#F5F1E8" stroke-opacity=".45"/><rect class="cLuz" style="animation-delay:0.75s" x="54" y="76" width="200" height="40" rx="8" fill="#D4A24C" fill-opacity=".1" stroke="#F5D79A"/><g transform="translate(92.1 99.5) scale(0.00900 -0.00900)" fill="#F5F1E8"><use href="#q1" x="0"/><use href="#q9" x="822"/><use href="#qa" x="1644"/><use href="#q1" x="2467"/><use href="#q8" x="3289"/><use href="#q49" x="4111"/><use href="#q7" x="5756"/><use href="#q9" x="6578"/><use href="#q3" x="8222"/><use href="#q9" x="9044"/><use href="#qa" x="9867"/><use href="#q4a" x="10689"/><use href="#q4" x="11511"/><use href="#q2" x="12333"/><use href="#q6" x="13156"/></g><rect x="54" y="134" width="200" height="40" rx="8" fill="#141319" stroke="#7FA6C9" stroke-opacity=".45"/><rect class="cLuz" style="animation-delay:1.5s" x="54" y="134" width="200" height="40" rx="8" fill="#D4A24C" fill-opacity=".1" stroke="#F5D79A"/><g transform="translate(136.5 157.5) scale(0.00900 -0.00900)" fill="#7FA6C9"><use href="#q7" x="0"/><use href="#q8" x="822"/><use href="#q7" x="1644"/><use href="#q6" x="2467"/><use href="#q49" x="3289"/></g><rect x="270" y="38" width="1" height="116" fill="#7FA6C9" opacity=".3"/><g class="cReq"><circle cx="270" cy="38" r="6" fill="#F5D79A" filter="url(#neonFino)"/><circle cx="270" cy="38" r="2.5" fill="#fff"/></g><g transform="translate(88.2 204.0) scale(0.00750 -0.00750)" fill="#7FA6C9" fill-opacity=".8"><use href="#q3f" x="0"/><use href="#q36" x="707"/><use href="#q3c" x="1413"/><use href="#q36" x="2120"/><use href="#q3f" x="3533"/><use href="#q36" x="4240"/><use href="#q3e" x="4947"/><use href="#q36" x="5653"/><use href="#q3c" x="6360"/><use href="#q36" x="7067"/><use href="#q3f" x="8480"/><use href="#q3d" x="9187"/><use href="#q3e" x="9893"/><use href="#q4b" x="11307"/><use href="#q40" x="12013"/><use href="#q38" x="12720"/><use href="#q4c" x="14133"/><use href="#q36" x="14840"/><use href="#q4c" x="15547"/><use href="#q40" x="16253"/><use href="#q39" x="16960"/></g></g></g>
  <rect x="80" y="0" width="840" height="1.2" fill="url(#fioTopo)"/><rect x="1" y="1" width="998" height="298" rx="23" fill="none" stroke="url(#borda)" stroke-width="1.5"/>
</g>
</svg>
