<svg xmlns="http://www.w3.org/2000/svg" xmlns:xlink="http://www.w3.org/1999/xlink" viewBox="0 0 1000 232" width="1000" height="232" role="img" aria-label="Como trabalho: 01 Descobrir — Briefing, contexto e requisitos reais do problema.; 02 Desenhar — Fluxo, wireframe e UI, validados antes do código.; 03 Construir — Front-end e back-end, com o mesmo padrão de qualidade.; 04 Entregar — Deploy, testes e refinamento pós-entrega.">
<defs>
    <linearGradient id="fundo" x1="0" y1="0" x2=".35" y2="1">
      <stop offset="0" stop-color="#121116"/><stop offset=".55" stop-color="#0A0A0C"/><stop offset="1" stop-color="#0D0C10"/>
    </linearGradient>
    <radialGradient id="aco" cx="50%" cy="50%" r="50%">
      <stop offset="0" stop-color="#7FA6C9" stop-opacity=".14"/><stop offset="1" stop-color="#7FA6C9" stop-opacity="0"/>
    </radialGradient>
    <radialGradient id="ouroAmb" cx="50%" cy="50%" r="50%">
      <stop offset="0" stop-color="#D4A24C" stop-opacity=".16"/><stop offset="1" stop-color="#D4A24C" stop-opacity="0"/>
    </radialGradient>
    <linearGradient id="fioTopo" x1="0" y1="0" x2="1" y2="0">
      <stop offset="0" stop-color="#fff" stop-opacity="0"/><stop offset=".5" stop-color="#F5D79A" stop-opacity=".5"/><stop offset="1" stop-color="#fff" stop-opacity="0"/>
    </linearGradient>
    <linearGradient id="borda" x1="0" y1="0" x2="1" y2="1">
      <stop offset="0" stop-color="#E2AE61" stop-opacity=".40"/><stop offset=".5" stop-color="#D4A24C" stop-opacity=".07"/><stop offset="1" stop-color="#7FA6C9" stop-opacity=".28"/>
    </linearGradient>
    <linearGradient id="ouro" x1="0" y1="0" x2="1" y2="0">
      <stop offset="0" stop-color="#BA8529"/><stop offset=".5" stop-color="#E2AE61"/><stop offset=".65" stop-color="#F5D79A"/><stop offset="1" stop-color="#D4A24C"/>
    </linearGradient>
    <linearGradient id="reflexo" x1="0" y1="0" x2="1" y2="0">
      <stop offset="0" stop-color="#fff" stop-opacity="0"/><stop offset=".5" stop-color="#fff" stop-opacity="1"/><stop offset="1" stop-color="#fff" stop-opacity="0"/>
    </linearGradient>
    <pattern id="pontos" width="22" height="22" patternUnits="userSpaceOnUse"><circle cx="11" cy="11" r=".85" fill="#7FA6C9"/></pattern>
    <clipPath id="card"><rect width="1000" height="232" rx="24"/></clipPath>
    <filter id="neon" x="-30%" y="-30%" width="160%" height="160%"><feGaussianBlur stdDeviation="7"/></filter>
    <filter id="neonFino" x="-60%" y="-60%" width="220%" height="220%"><feGaussianBlur stdDeviation="2.2"/></filter>
    <linearGradient id="cTrilha" x1="0" y1="0" x2="1" y2="0">
      <stop offset="0" stop-color="#D4A24C" stop-opacity=".2"/><stop offset="1" stop-color="#F5D79A"/>
    </linearGradient>
    <radialGradient id="cFaisca" cx="50%" cy="50%" r="50%">
      <stop offset="0" stop-color="#fff"/><stop offset=".3" stop-color="#F5D79A" stop-opacity=".9"/><stop offset="1" stop-color="#D4A24C" stop-opacity="0"/>
    </radialGradient><path id="c0" d="M327 714Q415 714 477 669Q540 624 573 543Q607 461 607 350Q607 239 573 158Q540 76 477 31Q415 -14 327 -14Q239 -14 176 31Q113 76 80 158Q46 239 46 350Q46 461 80 543Q113 624 176 669Q239 714 327 714ZM327 672Q265 672 233 590Q201 509 201 350Q201 191 233 110Q265 28 327 28Q388 28 420 110Q452 191 452 350Q452 509 420 590Q388 672 327 672Z"/><path id="c1" d="M351 0V10H330Q308 10 291 26Q275 41 275 63V714H265Q242 698 213 686Q183 675 152 668Q120 660 91 656Q62 652 42 650V640H68Q95 640 110 626Q126 612 126 579V64Q126 42 110 26Q94 10 71 10H50L49 0Z"/><path id="c2" d="M76 700V0H222V700ZM314 0Q424 0 507 43Q589 86 635 165Q681 243 681 350Q681 457 635 535Q589 614 507 657Q424 700 314 700H168V570H309Q355 570 396 557Q437 545 468 518Q499 491 516 450Q534 408 534 350Q534 292 516 250Q499 209 468 182Q437 155 396 143Q355 130 309 130H168V0Z"/><path id="c3" d="M168 0H521V121H168ZM168 579H521V700H168ZM168 312H501V431H168ZM76 700V0H214V700Z"/><path id="c4" d="M137 235 35 163Q58 114 99 72Q140 30 195 6Q251 -19 315 -19Q363 -19 406 -4Q450 10 485 38Q520 65 540 105Q560 145 560 196Q560 241 546 276Q531 310 506 335Q480 361 448 379Q417 397 383 409Q330 427 295 444Q260 462 243 481Q226 501 226 527Q226 553 247 573Q268 592 310 592Q342 592 367 580Q392 567 411 547Q431 526 445 501L557 563Q539 600 506 635Q474 669 425 692Q377 714 310 714Q245 714 193 691Q140 667 110 623Q79 580 79 520Q79 470 98 435Q117 399 146 375Q175 350 207 335Q240 319 265 310Q312 292 345 277Q377 261 394 241Q410 221 410 188Q410 150 383 128Q356 106 313 106Q276 106 244 122Q212 138 185 167Q159 196 137 235Z"/><path id="c5" d="M191 350Q191 420 222 471Q254 522 305 549Q356 577 416 577Q466 577 505 564Q544 551 576 529Q607 507 630 481V642Q587 676 537 695Q486 714 409 714Q329 714 260 688Q192 662 142 613Q91 564 64 497Q36 431 36 350Q36 269 64 203Q91 136 142 87Q192 38 260 12Q329 -14 409 -14Q486 -14 537 5Q587 24 630 58V219Q607 193 576 171Q544 149 505 136Q466 123 416 123Q356 123 305 151Q254 178 222 230Q191 281 191 350Z"/><path id="c6" d="M187 350Q187 417 215 469Q243 521 292 551Q341 581 406 581Q472 581 521 551Q570 521 597 469Q624 417 624 350Q624 283 597 231Q569 179 520 149Q471 119 406 119Q341 119 292 149Q243 179 215 231Q187 283 187 350ZM36 350Q36 271 63 203Q90 136 140 86Q190 36 258 9Q325 -19 406 -19Q487 -19 554 9Q622 36 671 86Q721 136 748 203Q776 271 776 350Q776 430 748 497Q721 563 670 612Q620 661 553 687Q486 714 406 714Q327 714 260 687Q192 661 142 612Q92 563 64 497Q36 430 36 350Z"/><path id="c7" d="M183 355H309Q379 355 432 374Q485 394 515 432Q545 470 545 523Q545 583 515 622Q485 661 432 681Q379 700 309 700H76V0H324Q402 0 461 21Q520 42 552 86Q585 130 585 199Q585 251 564 288Q542 325 505 348Q468 372 421 383Q375 394 324 394H183V316H311Q338 316 361 310Q384 305 402 292Q419 280 429 262Q438 243 438 217Q438 181 421 158Q405 135 376 124Q347 114 311 114H219V586H296Q343 586 371 565Q398 544 398 504Q398 478 385 459Q373 440 350 430Q327 420 296 420H183Z"/><path id="c8" d="M235 326 445 0H614L386 326ZM76 700V0H219V700ZM163 578H302Q340 578 367 565Q395 553 410 530Q425 506 425 473Q425 440 410 416Q395 393 367 380Q340 368 302 368H163V254H311Q394 254 452 282Q510 310 541 360Q572 411 572 477Q572 544 541 594Q510 644 452 672Q394 700 311 700H163Z"/><path id="c9" d="M76 700V0H221V700Z"/><path id="ca" d="M147 370H260Q323 370 370 388Q416 406 442 441Q468 476 468 525Q468 585 442 624Q416 662 370 681Q323 700 260 700H80V0H270Q338 0 392 22Q445 45 476 90Q508 136 508 205Q508 253 490 288Q472 323 440 346Q407 368 364 379Q321 390 270 390H147V343H270Q304 343 332 334Q360 326 380 309Q401 292 412 267Q423 242 423 210Q423 167 404 137Q384 107 350 91Q315 75 270 75H165V625H260Q313 625 348 598Q383 570 383 520Q383 487 367 464Q351 441 323 429Q295 417 260 417H147Z"/><path id="cb" d="M155 460H75V0H155ZM294 372 338 438Q320 457 298 464Q277 470 252 470Q220 470 189 445Q158 420 138 378Q119 335 119 280H155Q155 313 162 339Q168 365 185 380Q202 395 232 395Q252 395 265 390Q278 384 294 372Z"/><path id="cc" d="M75 650Q75 628 92 612Q108 595 130 595Q153 595 169 612Q185 628 185 650Q185 673 169 689Q153 705 130 705Q108 705 92 689Q75 673 75 650ZM90 460V0H170V460Z"/><path id="cd" d="M253 -10Q327 -10 382 20Q436 49 472 107L407 148Q382 106 346 86Q310 65 263 65Q216 65 183 85Q150 105 133 143Q116 181 116 235Q117 288 134 324Q152 361 184 380Q217 400 263 400Q302 400 331 383Q360 366 376 336Q393 306 393 265Q393 258 390 248Q387 237 384 232L416 278H86V210H479Q479 212 480 220Q480 227 480 234Q480 307 454 360Q428 413 380 442Q331 470 263 470Q195 470 144 440Q92 410 64 356Q35 302 35 230Q35 159 62 105Q90 51 140 20Q189 -10 253 -10Z"/><path id="ce" d="M40 460V385H270V460ZM262 684 306 750Q299 760 286 769Q274 778 257 784Q240 790 218 790Q176 790 146 772Q117 755 101 720Q85 685 85 630V0H165V620Q165 653 171 673Q177 693 188 702Q198 710 213 710Q225 710 238 706Q252 701 262 684Z"/><path id="cf" d="M370 280V0H450V290Q450 373 408 422Q365 470 292 470Q247 470 212 450Q178 430 155 388V460H75V0H155V280Q155 314 170 340Q184 366 210 380Q237 395 272 395Q320 395 345 366Q370 337 370 280Z"/><path id="c10" d="M44 -30Q44 -89 73 -134Q102 -180 154 -205Q205 -230 272 -230Q330 -230 382 -203Q434 -176 467 -122Q500 -69 500 10V460H420V10Q420 -48 398 -84Q375 -121 341 -138Q307 -155 272 -155Q227 -155 194 -138Q161 -120 143 -92Q125 -63 125 -30ZM35 230Q35 156 66 102Q97 48 149 19Q201 -10 263 -10Q321 -10 364 19Q407 48 432 102Q456 156 456 230Q456 305 432 358Q407 412 364 441Q321 470 263 470Q201 470 149 441Q97 412 66 358Q35 305 35 230ZM116 230Q116 283 138 320Q159 357 195 376Q231 395 273 395Q299 395 325 384Q351 373 372 352Q394 331 407 300Q420 270 420 230Q420 177 398 140Q376 103 342 84Q308 65 273 65Q231 65 195 84Q159 103 138 140Q116 177 116 230Z"/><path id="c11" d="M148 110 60 -149 118 -170 228 80Z"/><path id="c12" d="M111 230Q111 278 132 316Q152 353 188 374Q223 395 268 395Q305 395 338 384Q370 372 394 353Q418 334 428 311V411Q404 439 360 454Q315 470 268 470Q201 470 147 439Q93 408 62 354Q30 300 30 230Q30 161 62 106Q93 52 147 21Q201 -10 268 -10Q315 -10 360 6Q404 21 428 49V149Q418 127 394 108Q370 88 338 76Q305 65 268 65Q223 65 188 86Q152 108 132 145Q111 182 111 230Z"/><path id="c13" d="M35 230Q35 161 66 106Q98 52 152 21Q206 -10 273 -10Q341 -10 394 21Q448 52 480 106Q511 161 511 230Q511 300 480 354Q448 408 394 439Q341 470 273 470Q206 470 152 439Q98 408 66 354Q35 300 35 230ZM116 230Q116 278 136 316Q157 353 192 374Q228 395 273 395Q318 395 354 374Q389 353 410 316Q430 278 430 230Q430 182 410 145Q389 108 354 86Q318 65 273 65Q228 65 192 86Q157 108 136 145Q116 182 116 230Z"/><path id="c14" d="M5 460V385H235V460ZM80 620V0H160V620Z"/><path id="c15" d="M320 460 210 300 100 460H10L167 237L0 0H90L210 174L330 0H420L253 237L410 460Z"/><path id="c16" d="M420 -220H500V460H420ZM35 230Q35 156 66 102Q97 48 149 19Q201 -10 263 -10Q321 -10 364 19Q407 48 432 102Q456 156 456 230Q456 305 432 358Q407 412 364 441Q321 470 263 470Q201 470 149 441Q97 412 66 358Q35 305 35 230ZM116 230Q116 283 138 320Q159 357 195 376Q231 395 273 395Q308 395 342 376Q376 357 398 320Q420 283 420 230Q420 177 398 140Q376 103 342 84Q308 65 273 65Q231 65 195 84Q159 103 138 140Q116 177 116 230Z"/><path id="c17" d="M155 180V460H75V170Q75 88 118 39Q161 -10 233 -10Q279 -10 313 10Q347 31 370 72V0H450V460H370V180Q370 146 356 120Q341 94 314 80Q288 65 253 65Q205 65 180 95Q155 125 155 180Z"/><path id="c18" d="M94 141 31 102Q44 75 70 49Q95 23 132 6Q169 -10 215 -10Q286 -10 330 30Q373 70 373 130Q373 171 354 197Q334 223 301 242Q268 260 228 276Q204 286 182 297Q160 308 146 322Q132 336 132 354Q132 377 150 388Q168 399 193 399Q229 399 258 382Q286 365 305 339L369 380Q355 406 330 426Q305 446 272 458Q240 470 203 470Q166 470 132 457Q97 444 76 417Q54 390 54 349Q54 309 74 282Q95 256 126 240Q156 223 186 211Q213 201 237 190Q261 178 276 162Q292 145 292 121Q292 94 272 78Q253 63 219 63Q191 63 168 74Q144 84 126 102Q108 120 94 141Z"/><path id="c19" d="M111 142Q111 167 123 185Q135 203 160 213Q184 223 223 223Q265 223 302 212Q339 202 374 178V225Q367 234 347 248Q327 263 294 274Q260 286 210 286Q125 286 78 246Q30 205 30 138Q30 91 52 58Q74 25 110 8Q147 -10 189 -10Q227 -10 266 4Q304 18 330 47Q357 76 357 120L341 180Q341 144 324 116Q306 89 276 74Q247 59 210 59Q181 59 158 68Q136 78 124 97Q111 116 111 142ZM99 354Q110 362 129 373Q148 384 176 392Q203 400 237 400Q258 400 277 396Q296 392 310 383Q325 374 333 358Q341 343 341 319V0H421V330Q421 375 398 406Q376 437 336 454Q295 470 241 470Q177 470 132 451Q86 432 60 413Z"/><path id="c1a" d="M420 780V0H500V780ZM35 230Q35 156 66 102Q97 48 149 19Q201 -10 263 -10Q321 -10 364 19Q407 48 432 102Q456 156 456 230Q456 305 432 358Q407 412 364 441Q321 470 263 470Q201 470 149 441Q97 412 66 358Q35 305 35 230ZM116 230Q116 283 138 320Q159 357 195 376Q231 395 273 395Q308 395 342 376Q376 357 398 320Q420 283 420 230Q420 177 398 140Q376 103 342 84Q308 65 273 65Q231 65 195 84Q159 103 138 140Q116 177 116 230Z"/><path id="c1b" d="M150 -220V460H70V-220ZM535 230Q535 305 504 358Q473 412 422 441Q370 470 307 470Q250 470 206 441Q163 412 138 358Q114 305 114 230Q114 156 138 102Q163 48 206 19Q250 -10 307 -10Q370 -10 422 19Q473 48 504 102Q535 156 535 230ZM454 230Q454 177 432 140Q411 103 376 84Q340 65 297 65Q262 65 228 84Q194 103 172 140Q150 177 150 230Q150 283 172 320Q194 357 228 376Q262 395 297 395Q340 395 376 376Q411 357 432 320Q454 283 454 230Z"/><path id="c1c" d="M150 780H70V0H150ZM535 230Q535 305 504 358Q473 412 422 441Q370 470 307 470Q250 470 206 441Q163 412 138 358Q114 305 114 230Q114 156 138 102Q163 48 206 19Q250 -10 307 -10Q370 -10 422 19Q473 48 504 102Q535 156 535 230ZM454 230Q454 177 432 140Q411 103 376 84Q340 65 297 65Q262 65 228 84Q194 103 172 140Q150 177 150 230Q150 283 172 320Q194 357 228 376Q262 395 297 395Q340 395 376 376Q411 357 432 320Q454 283 454 230Z"/><path id="c1d" d="M75 780V0H155V780Z"/><path id="c1e" d="M705 290Q705 347 688 388Q670 428 637 449Q604 470 557 470Q511 470 475 448Q439 427 415 384Q399 425 364 448Q330 470 282 470Q239 470 208 451Q176 432 155 393V460H75V0H155V280Q155 316 168 342Q181 368 205 382Q229 395 262 395Q307 395 328 367Q350 339 350 280V0H430V280Q430 316 443 342Q456 368 480 382Q504 395 537 395Q582 395 604 367Q625 339 625 280V0H705Z"/><path id="c1f" d="M95 40Q95 18 112 2Q128 -15 150 -15Q173 -15 189 2Q205 18 205 40Q205 63 189 79Q173 95 150 95Q128 95 112 79Q95 63 95 40Z"/><path id="c20" d="M95 487 47 641Q73 664 111 680Q148 696 192 705Q235 714 277 714Q352 714 411 690Q470 665 503 620Q536 576 536 512Q536 463 515 416Q494 370 460 329Q425 287 385 250Q345 213 306 183Q267 153 237 129H443Q473 129 496 139Q518 149 537 171Q555 192 572 226H582L523 0H45V10Q85 55 130 105Q176 156 219 209Q262 262 298 316Q334 370 355 422Q376 474 376 523Q376 594 340 635Q304 676 242 672Q176 668 140 622Q105 575 105 487Z"/><path id="c21" d="M574 700V266L76 735V0H214V434L712 -35V700Z"/><path id="c22" d="M123 308H637V437H123ZM546 700V0H689V700ZM76 700V0H219V700Z"/><path id="c23" d="M173 159H543L526 272H190ZM356 473 461 230 459 194 549 0H711L356 741L1 0H162L254 200L251 232Z"/><path id="c24" d="M127 620H440V700H127ZM127 340H430V420H127ZM80 700V0H165V700Z"/><path id="c25" d="M5 460 205 -35 336 300 475 -35 675 460H585L469 159L335 495L210 161L95 460Z"/><path id="c26" d="M75 700V230Q75 178 92 134Q108 90 140 58Q171 26 215 8Q259 -10 313 -10Q367 -10 411 8Q455 26 486 58Q518 90 534 134Q551 178 551 230V700H466V230Q466 158 427 114Q388 70 313 70Q238 70 199 114Q160 158 160 230V700Z"/><path id="c27" d="M80 700V0H165V700Z"/><path id="c28" d="M0 460 220 -35 440 460H350L220 135L90 460Z"/><path id="c29" d="M35 230Q35 161 66 106Q98 52 152 21Q206 -10 273 -10Q341 -10 394 21Q448 52 480 106Q511 161 511 230Q511 300 480 354Q448 408 394 439Q341 470 273 470Q206 470 152 439Q98 408 66 354Q35 300 35 230ZM116 230Q116 278 136 316Q157 353 192 374Q228 395 273 395Q318 395 354 374Q389 353 410 316Q430 278 430 230Q430 182 410 145Q389 108 354 86Q318 65 273 65Q228 65 192 86Q157 108 136 145Q116 182 116 230ZM433 700 358 740 208 580 253 550Z"/><path id="c2a" d="M255 712Q327 713 379 693Q430 673 458 636Q486 600 486 549Q486 509 470 478Q454 447 427 427Q401 406 370 399Q339 391 311 399Q342 399 377 389Q411 378 442 356Q473 333 492 296Q511 259 511 206Q511 145 484 96Q457 47 410 13Q363 -21 303 -38Q243 -56 177 -55Q111 -54 47 -32L49 -22Q110 -23 165 -7Q219 10 261 41Q303 73 327 118Q351 163 351 217Q351 277 324 313Q296 350 252 367Q208 384 158 384L160 394Q206 393 247 415Q287 436 311 475Q336 514 331 565Q329 599 313 623Q297 647 270 660Q244 672 209 670Q148 667 120 623Q91 580 93 499H83L42 641Q75 671 128 691Q182 711 255 712Z"/><path id="c2b" d="M6 571H194V0H337V571H526V700H6Z"/><path id="c2c" d="M71 700V230Q71 168 91 121Q111 74 147 42Q183 10 232 -6Q281 -23 339 -23Q396 -23 445 -6Q494 10 530 42Q567 74 587 121Q607 168 607 230V700H464V239Q464 179 432 143Q401 106 339 106Q277 106 245 143Q214 179 214 239V700Z"/><path id="c2d" d="M5 200H205V275H5Z"/><path id="c2e" d="M70 780V0H150V780ZM320 460 120 270 340 0H440L220 270L420 460Z"/><path id="c2f" d="M111 135Q111 163 124 183Q137 203 164 214Q190 225 230 225Q274 225 309 214Q344 202 378 178V225Q371 234 352 248Q333 263 302 274Q270 286 226 286Q171 286 126 268Q82 250 56 214Q30 179 30 125Q30 83 50 53Q69 23 105 6Q141 -10 188 -10Q236 -10 275 6Q314 23 338 54Q361 86 361 130L345 180Q345 137 328 111Q310 85 279 73Q248 61 208 61Q176 61 154 70Q133 78 122 94Q111 111 111 135ZM111 352Q122 360 142 372Q161 383 188 392Q215 400 248 400Q286 400 316 382Q345 365 345 330V0H425V330Q425 375 402 406Q380 437 340 454Q301 470 248 470Q186 470 142 451Q98 432 72 413ZM83 567 136 530Q136 538 140 550Q144 562 155 572Q166 581 186 581Q209 581 226 570Q242 558 261 546Q280 534 307 534Q332 534 353 544Q374 555 390 572Q405 589 413 607L367 650Q352 626 338 614Q325 602 311 602Q291 602 278 609Q265 616 254 626Q242 635 226 642Q211 649 187 649Q165 649 142 638Q120 628 104 610Q88 592 83 567Z"/><path id="c30" d="M324 544 464 714H474V1H324ZM464 714 473 655 139 298H517Q545 298 557 306Q569 315 578 330H588L561 213H7V223ZM474 64Q474 42 490 26Q507 10 529 10H540V0H257L258 10H268Q291 10 307 26Q324 41 324 64Z"/><path id="c31" d="M416 260H617Q608 228 591 201Q574 174 549 153Q525 132 491 121Q457 109 414 109Q349 109 297 139Q246 169 216 223Q186 278 186 350Q186 423 217 476Q247 529 299 558Q351 586 414 586Q481 586 528 558Q574 529 600 483L722 554Q690 603 646 638Q601 674 543 694Q486 714 414 714Q333 714 264 688Q195 662 144 614Q93 566 64 499Q36 431 36 350Q36 269 63 201Q91 133 142 84Q192 35 260 8Q329 -19 410 -19Q496 -19 563 12Q630 43 676 98Q721 152 743 223Q764 294 761 374H416Z"/><path id="c32" d="M80 700V0H165V700ZM290 0Q392 0 471 44Q550 88 595 166Q640 245 640 350Q640 455 595 534Q550 612 471 656Q392 700 290 700H127V615H290Q349 615 398 596Q447 578 482 544Q517 509 536 460Q555 411 555 350Q555 289 536 240Q517 191 482 156Q447 122 398 104Q349 85 290 85H127V0Z"/><path id="c33" d="M440 460H350L208 104L241 100L95 460H0L176 65L50 -220H140Z"/>
<style>
      .sobe { animation: sobe 1s cubic-bezier(.2,.7,.3,1) both }
      @keyframes sobe { from{opacity:0;transform:translateY(12px)} to{opacity:1;transform:translateY(0)} }
      .surge { animation: surge 1.4s ease both }
      @keyframes surge { from{opacity:0} to{opacity:1} }
      .pisca { animation: pisca 2.6s ease-in-out infinite }
      @keyframes pisca { 0%,100%{opacity:.25} 50%{opacity:1} }
      @media (prefers-reduced-motion: reduce) { *{ animation:none !important } }
      .pulso { animation: pulso 8.0s cubic-bezier(.45,0,.55,1) infinite }
      @keyframes pulso { 0%{transform:translateX(0);opacity:0} 3%{opacity:1} 60%{transform:translateX(720px);opacity:1} 66%,100%{transform:translateX(720px);opacity:0} }
      .trilha { transform-box:fill-box; transform-origin:left; animation: trilha 8.0s cubic-bezier(.45,0,.55,1) infinite }
      @keyframes trilha { 0%{transform:scaleX(0);opacity:1} 60%{transform:scaleX(1);opacity:1} 85%,100%{transform:scaleX(1);opacity:0} }
      .acende { opacity:0; animation: acende 8.0s ease-out infinite }
      @keyframes acende { 0%{opacity:0} 3%{opacity:1} 30%{opacity:.35} 70%,100%{opacity:0} }
</style></defs>
<g clip-path="url(#card)">
  <rect width="1000" height="232" fill="url(#fundo)"/><rect width="1000" height="232" fill="url(#pontos)" opacity="0.1"/>
    <ellipse cx="80" cy="232" rx="350" ry="116" fill="url(#aco)"/>
    <ellipse cx="940" cy="0" rx="300" ry="104" fill="url(#aco)" opacity=".7"/>
    <path d="M620 0 L740 0 L560 232 L440 232 Z" fill="#fff" opacity=".016"/>
  <rect x="140" y="73.5" width="720" height="1" fill="#7FA6C9" opacity=".3"/><rect x="140" y="79" width="1" height="4" fill="#7FA6C9" opacity=".25"/><rect x="164" y="79" width="1" height="4" fill="#7FA6C9" opacity=".25"/><rect x="188" y="79" width="1" height="4" fill="#7FA6C9" opacity=".25"/><rect x="212" y="79" width="1" height="4" fill="#7FA6C9" opacity=".25"/><rect x="236" y="79" width="1" height="4" fill="#7FA6C9" opacity=".25"/><rect x="260" y="79" width="1" height="4" fill="#7FA6C9" opacity=".25"/><rect x="284" y="79" width="1" height="4" fill="#7FA6C9" opacity=".25"/><rect x="308" y="79" width="1" height="4" fill="#7FA6C9" opacity=".25"/><rect x="332" y="79" width="1" height="4" fill="#7FA6C9" opacity=".25"/><rect x="356" y="79" width="1" height="4" fill="#7FA6C9" opacity=".25"/><rect x="380" y="79" width="1" height="4" fill="#7FA6C9" opacity=".25"/><rect x="404" y="79" width="1" height="4" fill="#7FA6C9" opacity=".25"/><rect x="428" y="79" width="1" height="4" fill="#7FA6C9" opacity=".25"/><rect x="452" y="79" width="1" height="4" fill="#7FA6C9" opacity=".25"/><rect x="476" y="79" width="1" height="4" fill="#7FA6C9" opacity=".25"/><rect x="500" y="79" width="1" height="4" fill="#7FA6C9" opacity=".25"/><rect x="524" y="79" width="1" height="4" fill="#7FA6C9" opacity=".25"/><rect x="548" y="79" width="1" height="4" fill="#7FA6C9" opacity=".25"/><rect x="572" y="79" width="1" height="4" fill="#7FA6C9" opacity=".25"/><rect x="596" y="79" width="1" height="4" fill="#7FA6C9" opacity=".25"/><rect x="620" y="79" width="1" height="4" fill="#7FA6C9" opacity=".25"/><rect x="644" y="79" width="1" height="4" fill="#7FA6C9" opacity=".25"/><rect x="668" y="79" width="1" height="4" fill="#7FA6C9" opacity=".25"/><rect x="692" y="79" width="1" height="4" fill="#7FA6C9" opacity=".25"/><rect x="716" y="79" width="1" height="4" fill="#7FA6C9" opacity=".25"/><rect x="740" y="79" width="1" height="4" fill="#7FA6C9" opacity=".25"/><rect x="764" y="79" width="1" height="4" fill="#7FA6C9" opacity=".25"/><rect x="788" y="79" width="1" height="4" fill="#7FA6C9" opacity=".25"/><rect x="812" y="79" width="1" height="4" fill="#7FA6C9" opacity=".25"/><rect x="836" y="79" width="1" height="4" fill="#7FA6C9" opacity=".25"/><rect x="860" y="79" width="1" height="4" fill="#7FA6C9" opacity=".25"/><rect class="trilha" x="140" y="73" width="720" height="2" fill="url(#cTrilha)"/><g class="pulso"><circle cx="140" cy="74" r="9" fill="url(#cFaisca)"/><circle cx="140" cy="74" r="2.2" fill="#fff"/></g><g class="sobe" style="animation-delay:0.00s"><circle class="acende" style="animation-delay:0.00s" cx="140" cy="74" r="30" fill="#D4A24C" filter="url(#neon)"/><circle cx="140" cy="74" r="24" fill="#111015" stroke="#D4A24C" stroke-opacity=".3"/><circle class="acende" style="animation-delay:0.00s" cx="140" cy="74" r="24" fill="#D4A24C" fill-opacity=".14" stroke="#F5D79A" stroke-width="1.5"/><mask id="cmo1" maskUnits="userSpaceOnUse" x="120" y="62" width="40" height="24"><g fill="#fff"><g transform="translate(130.9 80.0) scale(0.01700 -0.01700)"><use href="#c0" x="0"/><use href="#c1" x="682"/></g></g></mask><rect x="120" y="62" width="40" height="24" fill="url(#ouro)" mask="url(#cmo1)"/><g transform="translate(84.2 134.0) scale(0.01400 -0.01400)" fill="#F5F1E8"><use href="#c2" x="0"/><use href="#c3" x="1016"/><use href="#c4" x="1902"/><use href="#c5" x="2803"/><use href="#c6" x="3799"/><use href="#c7" x="4910"/><use href="#c8" x="5841"/><use href="#c9" x="6761"/><use href="#c8" x="7357"/></g><rect x="126" y="146" width="28" height="1.5" rx=".75" fill="#E2AE61"/><g transform="translate(84.5 170.0) scale(0.01300 -0.01300)" fill="#A8A6A0"><use href="#ca" x="0"/><use href="#cb" x="573"/><use href="#cc" x="932"/><use href="#cd" x="1207"/><use href="#ce" x="1738"/><use href="#cc" x="2039"/><use href="#cf" x="2314"/><use href="#c10" x="2855"/><use href="#c11" x="3440"/><use href="#c12" x="4079"/><use href="#c13" x="4572"/><use href="#cf" x="5134"/><use href="#c14" x="5674"/><use href="#cd" x="5929"/><use href="#c15" x="6460"/><use href="#c14" x="6895"/><use href="#c13" x="7151"/><use href="#cd" x="8027"/></g><g transform="translate(56.5 189.0) scale(0.01300 -0.01300)" fill="#A8A6A0"><use href="#cb" x="0"/><use href="#cd" x="358"/><use href="#c16" x="889"/><use href="#c17" x="1474"/><use href="#cc" x="2015"/><use href="#c18" x="2290"/><use href="#cc" x="2708"/><use href="#c14" x="2984"/><use href="#c13" x="3239"/><use href="#c18" x="3800"/><use href="#cb" x="4534"/><use href="#cd" x="4893"/><use href="#c19" x="5423"/><use href="#cc" x="5919"/><use href="#c18" x="6195"/><use href="#c1a" x="6929"/><use href="#c13" x="7514"/><use href="#c1b" x="8391"/><use href="#cb" x="8976"/><use href="#c13" x="9334"/><use href="#c1c" x="9896"/><use href="#c1d" x="10481"/><use href="#cd" x="10727"/><use href="#c1e" x="11257"/><use href="#c19" x="12052"/><use href="#c1f" x="12549"/></g></g><g class="sobe" style="animation-delay:0.15s"><circle class="acende" style="animation-delay:1.60s" cx="380" cy="74" r="30" fill="#D4A24C" filter="url(#neon)"/><circle cx="380" cy="74" r="24" fill="#111015" stroke="#D4A24C" stroke-opacity=".3"/><circle class="acende" style="animation-delay:1.60s" cx="380" cy="74" r="24" fill="#D4A24C" fill-opacity=".14" stroke="#F5D79A" stroke-width="1.5"/><mask id="cmo2" maskUnits="userSpaceOnUse" x="360" y="62" width="40" height="24"><g fill="#fff"><g transform="translate(369.0 80.0) scale(0.01700 -0.01700)"><use href="#c0" x="0"/><use href="#c20" x="682"/></g></g></mask><rect x="360" y="62" width="40" height="24" fill="url(#ouro)" mask="url(#cmo2)"/><g transform="translate(327.7 134.0) scale(0.01400 -0.01400)" fill="#F5F1E8"><use href="#c2" x="0"/><use href="#c3" x="1016"/><use href="#c4" x="1902"/><use href="#c3" x="2803"/><use href="#c21" x="3689"/><use href="#c22" x="4777"/><use href="#c23" x="5841"/><use href="#c8" x="6852"/></g><rect x="366" y="146" width="28" height="1.5" rx=".75" fill="#7FA6C9"/><g transform="translate(317.3 170.0) scale(0.01300 -0.01300)" fill="#A8A6A0"><use href="#c24" x="0"/><use href="#c1d" x="515"/><use href="#c17" x="761"/><use href="#c15" x="1301"/><use href="#c13" x="1737"/><use href="#c11" x="2298"/><use href="#c25" x="2937"/><use href="#cc" x="3632"/><use href="#cb" x="3907"/><use href="#cd" x="4266"/><use href="#ce" x="4796"/><use href="#cb" x="5098"/><use href="#c19" x="5456"/><use href="#c1e" x="5952"/><use href="#cd" x="6748"/><use href="#cd" x="7594"/><use href="#c26" x="8439"/><use href="#c27" x="9081"/><use href="#c11" x="9341"/></g><g transform="translate(303.2 189.0) scale(0.01300 -0.01300)" fill="#A8A6A0"><use href="#c28" x="0"/><use href="#c19" x="455"/><use href="#c1d" x="952"/><use href="#cc" x="1197"/><use href="#c1a" x="1473"/><use href="#c19" x="2058"/><use href="#c1a" x="2554"/><use href="#c13" x="3140"/><use href="#c18" x="3701"/><use href="#c19" x="4435"/><use href="#cf" x="4931"/><use href="#c14" x="5472"/><use href="#cd" x="5727"/><use href="#c18" x="6257"/><use href="#c1a" x="6991"/><use href="#c13" x="7577"/><use href="#c12" x="8453"/><use href="#c29" x="8947"/><use href="#c1a" x="9508"/><use href="#cc" x="10093"/><use href="#c10" x="10369"/><use href="#c13" x="10954"/><use href="#c1f" x="11516"/></g></g><g class="sobe" style="animation-delay:0.30s"><circle class="acende" style="animation-delay:3.20s" cx="620" cy="74" r="30" fill="#D4A24C" filter="url(#neon)"/><circle cx="620" cy="74" r="24" fill="#111015" stroke="#D4A24C" stroke-opacity=".3"/><circle class="acende" style="animation-delay:3.20s" cx="620" cy="74" r="24" fill="#D4A24C" fill-opacity=".14" stroke="#F5D79A" stroke-width="1.5"/><mask id="cmo3" maskUnits="userSpaceOnUse" x="600" y="62" width="40" height="24"><g fill="#fff"><g transform="translate(609.4 80.0) scale(0.01700 -0.01700)"><use href="#c0" x="0"/><use href="#c2a" x="682"/></g></g></mask><rect x="600" y="62" width="40" height="24" fill="url(#ouro)" mask="url(#cmo3)"/><g transform="translate(563.7 134.0) scale(0.01400 -0.01400)" fill="#F5F1E8"><use href="#c5" x="0"/><use href="#c6" x="996"/><use href="#c21" x="2107"/><use href="#c4" x="3195"/><use href="#c2b" x="4096"/><use href="#c8" x="4927"/><use href="#c2c" x="5847"/><use href="#c9" x="6824"/><use href="#c8" x="7420"/></g><rect x="606" y="146" width="28" height="1.5" rx=".75" fill="#E2AE61"/><g transform="translate(538.5 170.0) scale(0.01300 -0.01300)" fill="#A8A6A0"><use href="#c24" x="0"/><use href="#cb" x="515"/><use href="#c13" x="874"/><use href="#cf" x="1435"/><use href="#c14" x="1976"/><use href="#c2d" x="2231"/><use href="#cd" x="2456"/><use href="#cf" x="2987"/><use href="#c1a" x="3527"/><use href="#cd" x="4428"/><use href="#c1c" x="5274"/><use href="#c19" x="5859"/><use href="#c12" x="6355"/><use href="#c2e" x="6849"/><use href="#c2d" x="7304"/><use href="#cd" x="7530"/><use href="#cf" x="8060"/><use href="#c1a" x="8600"/><use href="#c11" x="9186"/><use href="#c12" x="9824"/><use href="#c13" x="10318"/><use href="#c1e" x="10879"/><use href="#c13" x="11990"/></g><g transform="translate(536.2 189.0) scale(0.01300 -0.01300)" fill="#A8A6A0"><use href="#c1e" x="0"/><use href="#cd" x="795"/><use href="#c18" x="1326"/><use href="#c1e" x="1744"/><use href="#c13" x="2540"/><use href="#c1b" x="3416"/><use href="#c19" x="4002"/><use href="#c1a" x="4498"/><use href="#cb" x="5083"/><use href="#c2f" x="5442"/><use href="#c13" x="5942"/><use href="#c1a" x="6819"/><use href="#cd" x="7404"/><use href="#c16" x="8250"/><use href="#c17" x="8836"/><use href="#c19" x="9376"/><use href="#c1d" x="9872"/><use href="#cc" x="10118"/><use href="#c1a" x="10393"/><use href="#c19" x="10978"/><use href="#c1a" x="11475"/><use href="#cd" x="12060"/><use href="#c1f" x="12591"/></g></g><g class="sobe" style="animation-delay:0.45s"><circle class="acende" style="animation-delay:4.80s" cx="860" cy="74" r="30" fill="#D4A24C" filter="url(#neon)"/><circle cx="860" cy="74" r="24" fill="#111015" stroke="#D4A24C" stroke-opacity=".3"/><circle class="acende" style="animation-delay:4.80s" cx="860" cy="74" r="24" fill="#D4A24C" fill-opacity=".14" stroke="#F5D79A" stroke-width="1.5"/><mask id="cmo4" maskUnits="userSpaceOnUse" x="840" y="62" width="40" height="24"><g fill="#fff"><g transform="translate(848.9 80.0) scale(0.01700 -0.01700)"><use href="#c0" x="0"/><use href="#c30" x="682"/></g></g></mask><rect x="840" y="62" width="40" height="24" fill="url(#ouro)" mask="url(#cmo4)"/><g transform="translate(808.6 134.0) scale(0.01400 -0.01400)" fill="#F5F1E8"><use href="#c3" x="0"/><use href="#c21" x="886"/><use href="#c2b" x="1974"/><use href="#c8" x="2805"/><use href="#c3" x="3725"/><use href="#c31" x="4611"/><use href="#c23" x="5713"/><use href="#c8" x="6724"/></g><rect x="846" y="146" width="28" height="1.5" rx=".75" fill="#7FA6C9"/><g transform="translate(814.8 170.0) scale(0.01300 -0.01300)" fill="#A8A6A0"><use href="#c32" x="0"/><use href="#cd" x="695"/><use href="#c1b" x="1226"/><use href="#c1d" x="1811"/><use href="#c13" x="2057"/><use href="#c33" x="2618"/><use href="#c11" x="3073"/><use href="#c14" x="3712"/><use href="#cd" x="3967"/><use href="#c18" x="4498"/><use href="#c14" x="4916"/><use href="#cd" x="5172"/><use href="#c18" x="5702"/><use href="#cd" x="6436"/></g><g transform="translate(789.2 189.0) scale(0.01300 -0.01300)" fill="#A8A6A0"><use href="#cb" x="0"/><use href="#cd" x="358"/><use href="#ce" x="889"/><use href="#cc" x="1190"/><use href="#cf" x="1466"/><use href="#c19" x="2006"/><use href="#c1e" x="2502"/><use href="#cd" x="3298"/><use href="#cf" x="3828"/><use href="#c14" x="4368"/><use href="#c13" x="4624"/><use href="#c1b" x="5501"/><use href="#c29" x="6086"/><use href="#c18" x="6647"/><use href="#c2d" x="7066"/><use href="#cd" x="7291"/><use href="#cf" x="7822"/><use href="#c14" x="8362"/><use href="#cb" x="8617"/><use href="#cd" x="8976"/><use href="#c10" x="9506"/><use href="#c19" x="10091"/><use href="#c1f" x="10588"/></g></g>
  <rect x="80" y="0" width="840" height="1.2" fill="url(#fioTopo)"/><rect x="1" y="1" width="998" height="230" rx="23" fill="none" stroke="url(#borda)" stroke-width="1.5"/>
</g>
</svg>
